<svg xmlns="http://www.w3.org/2000/svg" width="55.884" height="60.029" viewBox="0 0 55.884 60.029">
  <g id="Group_1" data-name="Group 1" transform="translate(-930 -510)">
    <g id="Icons" transform="translate(930.012 511.029)">
      <path id="Shape" d="M41.89,14A13.964,13.964,0,0,1,21.11,26.22,27.32,27.32,0,0,1,18.89,13S24.87.2,40,6.93A13.92,13.92,0,0,1,41.89,14Z" fill="#ff9801"/>
      <path id="Shape-2" data-name="Shape" d="M40,6.93a19.18,19.18,0,0,0-9.78-1.88A21.58,21.58,0,0,1,37,6.93,13.975,13.975,0,0,1,26.41,27.9a12.62,12.62,0,0,0,1.51.09A13.971,13.971,0,0,0,40,6.93Z" fill="#f57c00"/>
      <path id="Shape-3" data-name="Shape" d="M40,6.93C24.87.2,18.89,13,18.89,13a27.32,27.32,0,0,0,2.19,13.23A13.994,13.994,0,1,1,40,6.93Z" fill="#02a9f4"/>
      <path id="Shape-4" data-name="Shape" d="M36,5.55a23.82,23.82,0,0,1,4,1.38A14,14,0,0,0,27.89,0a12.79,12.79,0,0,0-1.52.09A13.94,13.94,0,0,1,36,5.55Z" fill="#0377bc"/>
      <path id="Shape-5" data-name="Shape" d="M7.09,34.33A18.59,18.59,0,0,1,4.47,35,3,3,0,0,1,1,31.79,3.14,3.14,0,0,1,3.69,29a12.89,12.89,0,0,0,2-.5,14.39,14.39,0,0,1,1.4,5.83Z" fill="#02a9f4"/>
      <path id="Shape-6" data-name="Shape" d="M10.71,32.79a20,20,0,0,1-3.62,1.54,14.39,14.39,0,0,0-1.43-5.82,13.86,13.86,0,0,0,3.4-1.72A17.49,17.49,0,0,1,10.71,32.79Z" fill="#0377bc"/>
      <path id="Shape-7" data-name="Shape" d="M12.9,51a9.08,9.08,0,0,0-.05.91A4.1,4.1,0,0,1,9.34,56a4,4,0,0,1-4.49-4V51a9.66,9.66,0,0,1,8,0Z" fill="#607d8b"/>
      <path id="Shape-8" data-name="Shape" d="M47.87,28.08a23.76,23.76,0,0,1-12.22,4.84A31,31,0,0,1,29,46.08,12,12,0,0,0,26,53h-.06a9.49,9.49,0,0,0-8,0,19.43,19.43,0,0,1,1.37-6.2,8,8,0,0,1-4-1.81,11.79,11.79,0,0,0-2.34,6,9.66,9.66,0,0,0-8,0A20,20,0,0,1,10,38.77a22.53,22.53,0,0,0,4.6-8.72,20.88,20.88,0,0,1-3.85,2.74,17.49,17.49,0,0,0-1.65-6,14.16,14.16,0,0,0,3.33-3.18,3,3,0,0,1,3.43-1.2V21.17a14,14,0,0,0,21,3.58,1.43,1.43,0,0,0,1.83,1.47,17.93,17.93,0,0,0,5.12-2.59,10.48,10.48,0,0,0,4.06,4.45Z" fill="#02a9f4"/>
      <path id="Shape-9" data-name="Shape" d="M43.82,23.65A18.69,18.69,0,0,1,41.61,25a10.14,10.14,0,0,0,3.26,3.09,23.76,23.76,0,0,1-12.22,4.84A31,31,0,0,1,26,46.08a12.09,12.09,0,0,0-2.92,6.06,8.13,8.13,0,0,1,2.83.84H26a12,12,0,0,1,3-6.9,31,31,0,0,0,6.67-13.15,23.76,23.76,0,0,0,12.22-4.84A10.48,10.48,0,0,1,43.82,23.65Z" fill="#0377bc"/>
      <path id="Shape-10" data-name="Shape" d="M51.13,25.11a26,26,0,0,1-3.26,3,10.48,10.48,0,0,1-4-4.43,19.9,19.9,0,0,0,3.08-2.76,13.85,13.85,0,0,0,4.23,4.23Z" fill="#0377bc"/>
      <path id="Shape-11" data-name="Shape" d="M54.57,20.34a22.46,22.46,0,0,1-3.44,4.77,13.85,13.85,0,0,1-4.23-4.23,16.59,16.59,0,0,0,2.32-3.22,3,3,0,0,1,5.36,2.69Z" fill="#02a9f4"/>
      <path id="Shape-12" data-name="Shape" d="M26,53a8.39,8.39,0,0,0-.06,1,4,4,0,1,1-8,0V53a9.49,9.49,0,0,1,8,0Z" fill="#607d8b"/>
    </g>
    <path id="Shape-13" data-name="Shape" d="M38.45,19.1a1,1,0,0,0-1.32.51A9,9,0,0,1,28.89,25a1,1,0,0,0,0,2A11,11,0,0,0,39,20.41a1,1,0,0,0-.55-1.31Z" transform="translate(929.012 509.029)"/>
    <path id="Shape-14" data-name="Shape" d="M54.69,17.44a4,4,0,0,0-5.37,1.75,18,18,0,0,1-9.93,8.08.42.42,0,0,1-.34-.06.43.43,0,0,1-.09-.13,15,15,0,1,0-23.19-3.82A4,4,0,0,0,12.57,25a13.39,13.39,0,0,1-8.06,5A4.11,4.11,0,0,0,1,33.72,4,4,0,0,0,4.52,38c1.33.16,5.42-.79,9-3.06a19.64,19.64,0,0,1-3.26,5.2A21.06,21.06,0,0,0,4.85,54a5,5,0,0,0,5,5,5.06,5.06,0,0,0,5-5.08,10.52,10.52,0,0,1,1.62-5.51A9.35,9.35,0,0,0,19,49.51,23,23,0,0,0,17.89,56a5,5,0,0,0,10,0,11,11,0,0,1,2.83-7.24,31.41,31.41,0,0,0,6.72-12.9,25.72,25.72,0,0,0,19-13.05,4,4,0,0,0-1.75-5.37Zm-6.92,7a15.08,15.08,0,0,0,2.83,2.82c-.53.53-1.12,1.06-1.76,1.59a9.18,9.18,0,0,1-2.72-3,18.6,18.6,0,0,0,1.65-1.41ZM28.89,29a12.84,12.84,0,0,1-6-1.49,26.89,26.89,0,0,1-2-12.22c.7-1.37,6.29-11.23,19.4-5.57A13,13,0,0,1,28.89,29Zm0-26a12.94,12.94,0,0,1,9.17,3.8A15.687,15.687,0,0,0,19,14.58c-.31.67-.51,5.67,1.06,10.92A13,13,0,0,1,28.89,3ZM9.61,30.25a17.66,17.66,0,0,1,1,4A17.2,17.2,0,0,1,9,34.94a16,16,0,0,0-1-3.87A15.49,15.49,0,0,0,9.61,30.25ZM5.3,36A2,2,0,0,1,3,33.85,2.16,2.16,0,0,1,4.86,32c.42-.08.83-.17,1.22-.28a13.08,13.08,0,0,1,1,3.87c-.58.15-1.17.28-1.78.41Zm4.92,21a3,3,0,0,1-3.37-3v-.32a8.62,8.62,0,0,1,6,0v.26A3.13,3.13,0,0,1,10.22,57Zm13,2a3,3,0,0,1-3.37-3v-.34a8.54,8.54,0,0,1,6,0V56a3.06,3.06,0,0,1-2.59,3ZM36.5,34a1,1,0,0,0-.86.75,29.82,29.82,0,0,1-6.45,12.73,13.2,13.2,0,0,0-3.1,6.17,10.36,10.36,0,0,0-6.05-.08A18.47,18.47,0,0,1,21,49.88a16.38,16.38,0,0,0,1.93.12,1,1,0,0,0,0-2c-3.32,0-5.09-.94-6-1.81a3.85,3.85,0,0,1-1-1.44,1.031,1.031,0,0,0-2.01.46,5.19,5.19,0,0,0,1,1.84,12.81,12.81,0,0,0-1.86,4.52A10.47,10.47,0,0,0,7,51.53a19.17,19.17,0,0,1,4.67-10.1,23.34,23.34,0,0,0,4.82-9.1,1,1,0,0,0-1.64-1,17.94,17.94,0,0,1-2.41,1.85,18.13,18.13,0,0,0-1.18-4,14.61,14.61,0,0,0,2.93-2.95,2,2,0,0,1,2.28-.8,1,1,0,0,0,.66,0,15,15,0,0,0,7,4.9,17.05,17.05,0,0,0-3.85,7.13,7.54,7.54,0,0,1-1.7-1.06,1,1,0,1,0-1.41,1.42,9.64,9.64,0,0,0,2.73,1.67,16.54,16.54,0,0,0,0,3.73,1.006,1.006,0,0,0,2-.22,14.74,14.74,0,0,1,0-2.81,24.87,24.87,0,0,0,7,.92,1,1,0,0,0,0-2,22.54,22.54,0,0,1-6.72-.92,15.18,15.18,0,0,1,4.2-7.31,14.81,14.81,0,0,0,11-2.43,2.35,2.35,0,0,0,2.6.83,18.55,18.55,0,0,0,4.5-2.11,11.29,11.29,0,0,0,2.66,3,22.89,22.89,0,0,1-10.6,3.77ZM54.63,22A20.5,20.5,0,0,1,52,25.77a12.76,12.76,0,0,1-2.82-2.84,17.93,17.93,0,0,0,1.94-2.82,1.986,1.986,0,1,1,3.55,1.78Z" transform="translate(929.012 509.029)"/>
    <circle id="Oval" cx="1" cy="1" r="1" transform="translate(966.902 524.029)"/>
  </g>
</svg>
